# xmcd CD database file
#
# Track frame offsets:
#	150
#	15427
#	35876
#	54959
#	76470
#	96376
#	115871
#	136261
#
# Disc length: 2079 seconds
#
# Revision: 0
# Processed by: cddbd v1.5.1PL2 Copyright (c) Steve Scherf et al.
# Submitted via: CDex 1.51
#
DISCID=61081d08
DTITLE=Various Artist - Beautiful Everlasting Melody
DYEAR=2004
DGENRE=Instrumental
TTITLE0=知床旅情 (Travel Weary In Shiretoko)
TTITLE1=七里が浜哀歌 (When We Arrive At Home)
TTITLE2=浜千鳥 (Hamachidori)
TTITLE3=冬の星座 (Molly Darling)
TTITLE4=冬の夜 (Fuyu No Yoru)
TTITLE5=山のロザリア (Yama No Rozaria)
TTITLE6=千曲川旅情の歌 (Viaje Por El Rio Chikuma)
TTITLE7=あの町この町 (That Town This Town)
EXTD=YEAR: 2004
EXTT0=
EXTT1=
EXTT2=
EXTT3=
EXTT4=
EXTT5=
EXTT6=
EXTT7=
PLAYORDER=
